<svg xmlns="http://www.w3.org/2000/svg" viewBox="0 0 500 500"><path fill="#fff" d="M42.602 129.731 250.914 9.463l208.311 120.268v240.538L250.914 490.537 42.602 370.269z"/><path fill="#322c4d" d="m249.465 74.916 72.468 46.783 38.466 99.803-30.15 55.1 84.21 32.228 47.822 62.377L249.465 495.27 36.649 371.207 84.47 308.83l84.21-32.228-30.15-55.1 38.466-99.803z"/><path fill="#698092" d="m334.692 278.3 16.61 20.392v50.422l46.004-35.407 17.933 44.764 5.458-28.07 41.585 40.805-47.822-62.377zm-170.454 0-16.61 20.392v50.422l-46.004-35.407-17.933 44.764-5.458-28.07-41.585 40.805 47.822-62.377zm85.227-119.437 57.393 14.814 36.647 49.122-73.293 101.953 39.765-15.404 20.272-32.748 30.15-55.1-38.466-99.804-72.468-46.783-72.468 46.783-38.466 99.804 30.15 55.1 20.272 32.748 39.765 15.404L155.425 222.8l36.647-49.122z"/><path fill="#a4b2bd" d="M72.555 177.688v-26.504l2.307 2.423h-8.37v-4.452h11.354v28.533zm332.626-33.751v-26.505l2.306 2.423h-8.37v-4.452h11.354v28.534zm-273.476-8.32q-3.4 0-6.101-1.717t-4.264-4.989-1.562-7.964 1.562-7.965 4.264-4.989 6.101-1.717q3.401 0 6.103 1.717t4.263 4.99 1.563 7.964-1.563 7.964-4.263 4.989q-2.702 1.717-6.103 1.717m0-4.616q1.967 0 3.447-1.078t2.314-3.307q.837-2.229.837-5.67 0-3.445-.837-5.672-.836-2.226-2.314-3.303-1.48-1.079-3.447-1.079-1.93 0-3.427 1.079t-2.334 3.303q-.835 2.227-.835 5.673 0 3.44.835 5.67t2.334 3.306 3.427 1.078m244.21 56.141q-3.4 0-6.101-1.718t-4.264-4.989-1.562-7.964 1.562-7.964q1.562-3.273 4.264-4.99t6.102-1.717 6.102 1.718q2.701 1.716 4.264 4.989 1.562 3.271 1.562 7.964t-1.562 7.964-4.264 4.99-6.102 1.717m0-4.616q1.967 0 3.446-1.079t2.315-3.307.836-5.669q0-3.447-.836-5.672-.837-2.227-2.315-3.304t-3.446-1.078q-1.931 0-3.428 1.078t-2.333 3.304-.836 5.672q0 3.44.836 5.67t2.333 3.306 3.428 1.079m62.148 38.37v-31.71l2.76 2.898H430.81v-5.327h13.584v34.14zM189.038 96.14V64.43l2.761 2.898h-10.014v-5.326h13.583v34.14zm-79.2 132.653q-4.068 0-7.3-2.054t-5.102-5.97-1.87-9.529 1.87-9.529 5.101-5.969q3.233-2.055 7.3-2.055 4.07 0 7.302 2.055 3.232 2.054 5.101 5.97t1.87 9.528q0 5.615-1.87 9.53-1.87 3.913-5.101 5.969-3.232 2.054-7.301 2.054m0-5.523q2.353 0 4.123-1.29t2.77-3.956 1-6.784q0-4.123-1-6.787t-2.77-3.952q-1.77-1.29-4.123-1.29-2.31 0-4.101 1.29-1.791 1.289-2.792 3.952t-1 6.787q0 4.117 1 6.784t2.792 3.956 4.1 1.29M320.335 97.16q-4.069 0-7.3-2.055-3.233-2.054-5.102-5.969-1.87-3.914-1.87-9.529t1.87-9.529 5.101-5.969q3.232-2.055 7.301-2.055t7.3 2.055q3.233 2.054 5.102 5.97 1.87 3.913 1.87 9.528t-1.87 9.529q-1.869 3.915-5.101 5.97t-7.3 2.054m0-5.524q2.352 0 4.122-1.289t2.77-3.957q1-2.666 1-6.783 0-4.124-1-6.787t-2.77-3.953-4.123-1.29q-2.31 0-4.1 1.29-1.792 1.29-2.793 3.953t-1 6.787q0 4.117 1 6.783t2.792 3.957q1.79 1.29 4.101 1.29M71.854 285.084V240.7l3.863 4.058H61.7V237.3h19.013v47.784zm324.733-6.082q-5.695 0-10.218-2.876-4.525-2.876-7.14-8.354-2.618-5.48-2.618-13.338t2.617-13.337 7.14-8.355 10.219-2.876 10.219 2.876 7.14 8.355 2.617 13.337-2.617 13.338-7.14 8.354-10.219 2.876m0-7.73q3.294 0 5.77-1.806 2.477-1.805 3.877-5.538t1.401-9.494q0-5.77-1.4-9.499t-3.878-5.533-5.77-1.806q-3.234 0-5.74 1.806-2.507 1.805-3.907 5.533t-1.4 9.499q0 5.761 1.4 9.494t3.907 5.538q2.506 1.806 5.74 1.806"/><path fill="#322c4d" d="m250.915 499.996 216.504-124.999V125L250.915.001 34.411 124.999v249.998zm208.31-129.73-208.31 120.267-208.31-120.267V129.731L250.915 9.463l208.31 120.268z"/></svg>